<svg width="32" height="37" viewBox="0 0 32 37" fill="none" xmlns="http://www.w3.org/2000/svg">
<path d="M18.0243 23.8182C21.06 22.5069 26.5278 23.7252 28.8486 25.2505C24.6526 32.1699 15.2115 34.4485 8.91748 30.0959C11.1547 30.7562 16.669 28.766 18.0243 23.8182Z" stroke="#FF9A00" stroke-width="1.5" stroke-miterlimit="10"/>
<path d="M9.70662 19.3633C9.326 16.1919 5.39919 12.416 2.82773 11.3185C-1.19192 18.331 1.68589 27.2035 8.84328 30.068C7.14444 28.3289 6.1697 23.967 9.70662 19.3633Z" stroke="#FF9A00" stroke-width="1.5" stroke-miterlimit="10"/>
<path d="M30.7053 16.9917C26.8621 15.9966 20.698 18.4333 18.4514 21.707C18.3957 22.2929 18.3215 22.6184 18.0244 23.8182C19.8625 22.9904 24.4299 23.1764 26.3886 24.1158C26.5279 24.1809 26.7043 24.1623 26.8249 24.0693C28.5145 22.7858 30.7889 19.1029 30.7053 16.9917Z" stroke="#FF9A00" stroke-width="1.5" stroke-miterlimit="10"/>
<path d="M9.22411 5.48723C11.5264 7.5612 13.383 14.8992 11.6935 17.6893C11.6749 17.7172 11.647 17.7451 11.6192 17.7637C11.2014 18.052 10.7373 18.4054 10.0503 19.0285C9.90179 19.1587 9.66042 19.1029 9.61401 18.9076C9.11271 16.8894 6.7362 13.6343 5.00951 12.6485C4.92596 12.602 4.87027 12.509 4.88883 12.416C5.10235 10.4071 7.26534 6.53817 9.22411 5.48723Z" stroke="#FF9A00" stroke-width="1.5" stroke-miterlimit="10"/>
<path d="M21.6264 8.53775C20.7909 8.55635 17.7832 9.23527 16.0565 10.3792C12.7888 12.5369 12.4732 16.8336 12.4546 17.2987C12.8166 17.1034 14.6083 16.4616 15.2674 16.3221C16.1122 16.1547 16.4835 16.1547 16.9384 16.2291C17.2355 16.5081 17.5047 16.9267 17.8482 17.6056C18.2566 18.4147 18.4887 20.0144 18.4887 20.5352C19.2314 20.0237 21.1716 18.2938 22.0349 16.5267C23.7152 13.0577 21.8771 9.06787 21.6264 8.53775Z" stroke="#FF9A00" stroke-width="1.5" stroke-miterlimit="10"/>
<path d="M30.6405 9.95137C29.6007 9.86767 28.0504 9.85837 26.2495 10.3141C24.9034 10.6582 23.4274 10.9651 22.6197 11.3929C22.5826 11.4115 22.564 11.458 22.5733 11.5045C22.7776 12.0811 22.8333 14.2667 22.4526 15.3735C21.5243 18.0427 19.3706 20.0701 18.8322 20.591C18.8136 20.6096 18.8322 20.6375 18.86 20.6282C19.6398 20.2561 21.3479 18.9262 22.5362 18.3868C23.5202 17.9404 26.0731 16.8708 27.1685 16.8708C27.2985 16.8708 27.4192 16.815 27.5027 16.722C28.0412 16.1361 28.7653 15.0387 29.3037 14.1179C30.2784 12.4532 30.5569 10.9 30.6405 9.95137Z" stroke="#FF9A00" stroke-width="1.5" stroke-miterlimit="10"/>
<path d="M15.5368 1.86013C16.1495 2.65996 16.9664 3.9155 17.4956 5.61746C17.904 6.93811 18.4053 8.33316 18.4146 9.21669C17.8947 9.26319 15.7596 10.4071 14.9334 11.3372C13.578 12.8624 12.9653 14.7876 12.5754 15.9966C12.5197 16.164 12.2691 16.1175 12.2877 15.9408C12.3805 15.0666 12.3991 13.9134 12.3062 13.0949C12.1948 12.0626 11.5079 9.03999 10.9323 8.09135C10.858 7.97975 10.8488 7.83094 10.9045 7.71004C11.1922 6.99391 11.8235 6.06388 12.4919 5.11525C13.6059 3.53419 14.7292 2.41815 15.5368 1.86013Z" stroke="#FF9A00" stroke-width="1.5" stroke-miterlimit="10"/>
<path d="M25.5906 1.44159C25.6648 1.43229 25.7391 1.47879 25.7762 1.53459C26.1661 2.21352 26.9181 3.80387 26.751 5.92435C26.5746 8.19363 25.5163 9.9421 25.0243 10.5652C24.9964 10.6024 24.95 10.6303 24.8943 10.6396C24.6065 10.6954 24.2352 10.7977 23.8824 10.9186C23.5482 11.0302 23.1212 11.179 22.8056 11.3092C22.6849 11.3557 22.5549 11.2906 22.5364 11.1697C22.4807 10.8628 22.3043 10.5001 22.2115 10.0444C22.1093 9.54218 21.8216 8.91906 21.6916 8.65865C21.6545 8.58425 21.5709 8.53774 21.4874 8.55634C21.1253 8.61215 20.1784 8.77025 19.7421 8.87256C19.3522 8.96556 19.0552 9.03996 18.8416 9.10506C18.6188 9.17017 18.4053 9.02136 18.3868 8.80745C18.3403 8.11923 18.034 7.245 17.9504 7.01249C17.9319 6.97529 17.9319 6.92879 17.9504 6.89159C18.0526 6.59397 18.5074 5.35703 19.1758 4.5851C20.4941 3.05985 22.6571 1.6648 25.5906 1.44159Z" stroke="#FF9A00" stroke-width="1.5" stroke-miterlimit="10"/>
<path d="M8.91774 30.1052C10.1431 30.3936 14.8961 29.9657 17.1148 25.9108C18.6373 23.1393 19.12 19.2611 17.0499 16.164C13.5222 15.9966 10.106 18.3403 8.5464 21.1583C6.26272 25.2784 7.57166 29.1752 8.91774 30.1052Z" stroke="#FF9A00" stroke-width="1.5" stroke-miterlimit="10"/>
<path d="M6.38464 35.8515L4.92459 34.9988L10.3984 27.2672L6.38464 35.8515Z" stroke="#FF9A00"/>
<path d="M16.2601 28.469C15.9723 28.4543 15.6971 28.4275 15.4243 28.3684C16.1446 28.0064 16.9322 27.9443 17.835 28.018L17.8573 28.0199L17.8797 28.0197C18.0834 28.0181 18.2868 28.0168 18.4898 28.016C17.7462 28.21 17.008 28.3742 16.2601 28.469Z" stroke="#FF9A00"/>
<path d="M6.9046 23.4966C6.98369 23.783 7.04519 24.0631 7.07383 24.35C6.48308 23.7255 6.16629 22.9469 5.9505 22.0213L5.94554 22.0001L5.93875 21.9793C5.87044 21.7707 5.80256 21.5621 5.73541 21.3535C6.16867 22.0563 6.57065 22.7629 6.9046 23.4966Z" stroke="#FF9A00"/>
<path d="M18.8177 21.7054L20.2629 21.4991L18.8877 21.9895L18.8177 21.7054Z" stroke="#FF9A00"/>
<path d="M10.7578 17.8145L10.4649 16.4429L11.0245 17.7279L10.7578 17.8145Z" stroke="#FF9A00"/>
<path d="M22.9035 15.1083L23.6248 14.9964L22.9729 15.3245L22.9035 15.1083Z" stroke="#FF9A00"/>
<path d="M14.6993 10.8804L14.6427 10.2656L14.8998 10.8278L14.6993 10.8804Z" stroke="#FF9A00"/>
<path d="M21.7352 8.2497L22.2378 7.60347L21.9388 8.36577L21.7352 8.2497Z" stroke="#FF9A00"/>
<path d="M17.0417 15.9106L17.573 15.2581L17.2481 16.0341L17.0417 15.9106Z" stroke="#FF9A00"/>
</svg>
