<?xml version="1.0" encoding="UTF-8"?>
<svg xmlns="http://www.w3.org/2000/svg" xmlns:xlink="http://www.w3.org/1999/xlink" width="0" height="0">

<svg id="trash" width="24" height="24" viewBox="0 0 24 24" fill="none" xmlns="http://www.w3.org/2000/svg">
<path d="M14 10V17M10 10V17M6 6V17.8C6 18.9201 6 19.4798 6.21799 19.9076C6.40973 20.2839 6.71547 20.5905 7.0918 20.7822C7.5192 21 8.07899 21 9.19691 21H14.8031C15.921 21 16.48 21 16.9074 20.7822C17.2837 20.5905 17.5905 20.2839 17.7822 19.9076C18 19.4802 18 18.921 18 17.8031V6M6 6H8M6 6H4M8 6H16M8 6C8 5.06812 8 4.60241 8.15224 4.23486C8.35523 3.74481 8.74432 3.35523 9.23438 3.15224C9.60192 3 10.0681 3 11 3H13C13.9319 3 14.3978 3 14.7654 3.15224C15.2554 3.35523 15.6447 3.74481 15.8477 4.23486C15.9999 4.6024 16 5.06812 16 6M16 6H18M18 6H20" stroke="currentColor" stroke-width="2" stroke-linecap="round" stroke-linejoin="round"/>
</svg>


<symbol id="search" width="24" height="24" viewBox="0 0 24 24" fill="none">
<path d="M15 15L21 21M10 17C6.13401 17 3 13.866 3 10C3 6.13401 6.13401 3 10 3C13.866 3 17 6.13401 17 10C17 13.866 13.866 17 10 17Z" stroke="currentColor" stroke-width="2" stroke-linecap="round" stroke-linejoin="round"/>
</symbol>

<symbol id="heart" width="24" height="24" viewBox="0 0 24 24" fill="none">
<path d="M12 7.69431C10 2.99988 3 3.49988 3 9.49991C3 15.4999 12 20.5001 12 20.5001C12 20.5001 21 15.4999 21 9.49991C21 3.49988 14 2.99988 12 7.69431Z" stroke="currentColor" stroke-width="2" stroke-linecap="round" stroke-linejoin="round"/>
</symbol>

<symbol id="avatar" width="24" height="24" viewBox="0 0 24 24" fill="none">
<path d="M20 21C20 18.2386 16.4183 16 12 16C7.58172 16 4 18.2386 4 21M12 13C9.23858 13 7 10.7614 7 8C7 5.23858 9.23858 3 12 3C14.7614 3 17 5.23858 17 8C17 10.7614 14.7614 13 12 13Z" 
stroke="currentColor" stroke-width="2" stroke-linecap="round" stroke-linejoin="round"
/>
</symbol>

<symbol id="arrow" width="24" height="24" viewBox="0 0 24 24" fill="none">
 <path
      d="M7 12H17M17 12L13 8M17 12L13 16"
      stroke="currentColor" stroke-width="2" stroke-linecap="round" stroke-linejoin="round"
    />
</symbol>
<symbol id="chevronDown" width="24" height="24" viewBox="0 0 24 24" fill="none">
 <path
      d="M19 9.5L12 16.5L5 9.5"
      stroke="currentColor" stroke-width="2" stroke-linecap="round" stroke-linejoin="round"
    />
</symbol>
<symbol id="close" width="24" height="24" viewBox="0 0 24 24" fill="none">
 <path
      d="M18 18L12 12M12 12L6 6M12 12L18 6M12 12L6 18"
      stroke="currentColor" stroke-width="2" stroke-linecap="round" stroke-linejoin="round"
    />
</symbol>
<symbol id="minus" width="24" height="24" viewBox="0 0 24 24" fill="none">
 <path
      d="M6 12H18"
      stroke="currentColor" stroke-width="2" stroke-linecap="round" stroke-linejoin="round"
    />
</symbol>
<symbol id="plus" width="24" height="24" viewBox="0 0 24 24" fill="none">
 <path
      d="M6 12H12M12 12H18M12 12V18M12 12V6"
      stroke="currentColor" stroke-width="2" stroke-linecap="round" stroke-linejoin="round"
    />
</symbol>

<symbol id="cart" width="24" height="24" viewBox="0 0 24 24" fill="none" xmlns="http://www.w3.org/2000/svg">
<path d="M3 3H3.26835C3.74213 3 3.97943 3 4.17267 3.08548C4.34304 3.16084 4.48871 3.28218 4.59375 3.43604C4.71269 3.61026 4.75564 3.8429 4.84137 4.30727L7.00004 16L17.4218 16C17.875 16 18.1023 16 18.29 15.9199C18.4559 15.8492 18.5989 15.7346 18.7051 15.5889C18.8252 15.4242 18.8761 15.2037 18.9777 14.7631L18.9785 14.76L20.5477 7.95996L20.5481 7.95854C20.7023 7.29016 20.7796 6.95515 20.6947 6.69238C20.6202 6.46182 20.4635 6.26634 20.2556 6.14192C20.0184 6 19.6758 6 18.9887 6H5.5M18 21C17.4477 21 17 20.5523 17 20C17 19.4477 17.4477 19 18 19C18.5523 19 19 19.4477 19 20C19 20.5523 18.5523 21 18 21ZM8 21C7.44772 21 7 20.5523 7 20C7 19.4477 7.44772 19 8 19C8.55228 19 9 19.4477 9 20C9 20.5523 8.55228 21 8 21Z" stroke="currentColor" stroke-width="2" stroke-linecap="round" stroke-linejoin="round"/>
</symbol>

<symbol id="swiper-right-arrow" width="24" height="25" viewBox="0 0 24 25" fill="none" xmlns="http://www.w3.org/2000/svg">
<path d="M21 12.5L16 7.5M21 12.5L16 17.5M21 12.5H3" stroke="currentColor" stroke-width="2" stroke-linecap="round" stroke-linejoin="round"/>
</symbol>

<symbol id="swiper-left-arrow" width="24" height="25" viewBox="0 0 24 25" fill="none" xmlns="http://www.w3.org/2000/svg">
<path d="M3 12.5L8 17.5M3 12.5L8 7.5M3 12.5H21" stroke="currentColor" stroke-width="2" stroke-linecap="round" stroke-linejoin="round"/>
</symbol>






</svg>